{
  "accessors": [
    {
      "bufferView": 2,
      "componentType": 5126,
      "count": 19796,
      "max": [0.15132999420166016, 0.16810700297355652, 0.17509500682353973],
      "min": [-0.15755900740623474, -0.2525239884853363, -0.31018200516700745],
      "type": "VEC3"
    },
    {
      "bufferView": 2,
      "byteOffset": 237552,
      "componentType": 5126,
      "count": 19796,
      "max": [0.9998924732208252, 0.9999547600746155, 0.9981967806816101],
      "min": [-0.9999862313270569, -0.9993929862976074, -0.9991974830627441],
      "type": "VEC3"
    },
    {
      "bufferView": 1,
      "componentType": 5126,
      "count": 19796,
      "max": [1.0, 1.0],
      "min": [0.0, 0.0],
      "type": "VEC2"
    },
    {
      "bufferView": 0,
      "componentType": 5125,
      "count": 108738,
      "type": "SCALAR"
    }
  ],
  "asset": {
    "extras": {
      "author": "vorobevdesign (https://sketchfab.com/vorobevdesign)",
      "license": "CC-BY-4.0 (http://creativecommons.org/licenses/by/4.0/)",
      "source": "https://sketchfab.com/3d-models/stalin-sculpture-3d-scanned-b6bbe7c0849641da86d8f407ade0f64e",
      "title": "Stalin sculpture - 3D scanned"
    },
    "generator": "Sketchfab-12.68.0",
    "version": "2.0"
  },
  "bufferViews": [
    {
      "buffer": 0,
      "byteLength": 434952,
      "name": "floatBufferViews",
      "target": 34963
    },
    {
      "buffer": 0,
      "byteLength": 158368,
      "byteOffset": 434952,
      "byteStride": 8,
      "name": "floatBufferViews",
      "target": 34962
    },
    {
      "buffer": 0,
      "byteLength": 475104,
      "byteOffset": 593320,
      "byteStride": 12,
      "name": "floatBufferViews",
      "target": 34962
    }
  ],
  "buffers": [
    {
      "byteLength": 1068424,
      "uri": "scene.bin"
    }
  ],
  "extensionsUsed": ["KHR_materials_unlit"],
  "images": [
    {
      "uri": "textures/mesh_baseColor.jpeg"
    }
  ],
  "materials": [
    {
      "doubleSided": true,
      "extensions": {
        "KHR_materials_unlit": {}
      },
      "name": "mesh",
      "pbrMetallicRoughness": {
        "baseColorTexture": {
          "index": 0
        },
        "metallicFactor": 0.0
      }
    }
  ],
  "meshes": [
    {
      "name": "Object_0",
      "primitives": [
        {
          "attributes": {
            "NORMAL": 1,
            "POSITION": 0,
            "TEXCOORD_0": 2
          },
          "indices": 3,
          "material": 0,
          "mode": 4
        }
      ]
    }
  ],
  "nodes": [
    {
      "children": [1],
      "matrix": [
        -0.9978583455085754, -2.978012266416511e-16, 0.06541159749031067, 0.0,
        -0.06541159749031067, 6.075679980382411e-17, -0.9978583455085754, 0.0,
        2.9318925797530454e-16, -1.0, -8.010634104156254e-17, 0.0,
        -0.008618590421974659, -0.13508786261081696, 0.0002600185398477761, 1.0
      ],
      "name": "Sketchfab_model"
    },
    {
      "children": [2],
      "name": "mesh.obj.cleaner.materialmerger.gles"
    },
    {
      "mesh": 0,
      "name": "Object_2"
    }
  ],
  "samplers": [
    {
      "magFilter": 9729,
      "minFilter": 9987,
      "wrapS": 10497,
      "wrapT": 10497
    }
  ],
  "scene": 0,
  "scenes": [
    {
      "name": "Sketchfab_Scene",
      "nodes": [0]
    }
  ],
  "textures": [
    {
      "sampler": 0,
      "source": 0
    }
  ]
}
